# xmcd CD database file
#
# Track frame offsets:
#	182
#	10495
#	25307
#	36420
#	48610
#	59455
#	71047
#	84507
#	94945
#	106047
#	118432
#	128850
#	139920
#	150242
#	162805
#	174955
#	185440
#	194420
#	206925
#	217817
#
# Disc length: 3062 seconds
#
# Revision: 0
# Processed by: cddbd v1.5PL3 Copyright (c) Steve Scherf et al.
# Submitted via: Feurio! 1.67 - http://www.feurio.com
#
DISCID=220bf414
DTITLE=Various Artist - American Dance a Gogo vol.1
DYEAR=1900
DGENRE=Popcorn
TTITLE0=Untouchables - Raisin' Sugar Cane
TTITLE1=Flamingos - Besame Mucho
TTITLE2=Frontiers - Don't Come Cryin'
TTITLE3=Starglows - Walk Softly Away
TTITLE4=Corsairs - Dancing Shadows
TTITLE5=Videls - Mr. Lonely
TTITLE6=Notes - Cha Cha Jezebel
TTITLE7=Chants - Dick Tracy
TTITLE8=Velvets - Laugh
TTITLE9=Velvets - Spring Fever
TTITLE10=Jimmy Clanton - Venus in Blue Jeans
TTITLE11=Crystals - Uptown
TTITLE12=Crystals - He's a Rebel
TTITLE13=Gladys Knight - Letter Full of Tears
TTITLE14=Fontella Bass - Oh No! Not My Baby
TTITLE15=Gladys Knight and The Pips - Operator
TTITLE16=Elvis Presley - Craw-Fish
TTITLE17=United Stars - Moon over Tahiti
TTITLE18=Lesley Gore - Judy's Turn to Cry
TTITLE19=Platters - Mack the Knife
EXTD=
EXTT0=
EXTT1=
EXTT2=
EXTT3=
EXTT4=
EXTT5=
EXTT6=
EXTT7=
EXTT8=
EXTT9=
EXTT10=
EXTT11=
EXTT12=
EXTT13=
EXTT14=
EXTT15=
EXTT16=
EXTT17=
EXTT18=
EXTT19=
PLAYORDER=
